<?xml version="1.0" encoding="UTF-8"?>
<svg width="16px" height="16px" viewBox="0 0 16 16" version="1.1" xmlns="http://www.w3.org/2000/svg" xmlns:xlink="http://www.w3.org/1999/xlink">
    <!-- Generator: Sketch 48.2 (47327) - http://www.bohemiancoding.com/sketch -->
    <title>Artboard</title>
    <desc>Created with Sketch.</desc>
    <defs></defs>
    <g id="Page-1" stroke="none" stroke-width="1" fill="none" fill-rule="evenodd">
        <g id="Artboard" fill="#19C469">
            <path d="M9.61586672,6.0877498 C8.62659306,5.0876062 7.94680266,3.92406322 7.63166804,3.32419002 L3.11422763,8.91664998 C3.06097084,8.98266797 2.98108565,9.021001 2.89679432,9.021001 L2.89516597,9.021001 C2.81010835,9.020517 2.73003159,8.98111916 2.67715794,8.91393956 C2.66642996,8.90038748 1.59468489,7.54208173 1.08280665,7.02477943 C1.02188701,6.96321426 0.992289259,6.87686814 1.00244253,6.79052202 C1.01259581,6.7041759 1.06144646,6.62731624 1.13491402,6.58191677 C3.60244683,5.05730762 6.47534429,1.32690364 7.29708895,0.219892199 C7.39507761,0.0881466088 7.55025028,0.0187405924 7.71184059,0.0345190871 C7.87419718,0.0501039806 8.01404415,0.148259769 8.08569178,0.29675186 C8.45513683,1.06312206 9.7603114,3.63269347 11.0515971,4.53255167 C11.1200838,4.58027436 11.1641451,4.65645642 11.171808,4.74028572 C11.1793751,4.82421182 11.1495857,4.90726672 11.0905818,4.96679908 C10.9491065,5.10967674 10.8261178,5.24026072 10.6882823,5.3864296 C10.5103126,5.57519073 10.3084924,5.78902321 10.0129938,6.0877498 C9.96031173,6.14099012 9.88885568,6.1709015 9.81443027,6.1709015 C9.74000486,6.1709015 9.6685488,6.14099012 9.61586672,6.0877498 Z M12.8302973,6.55077602 C12.8410253,6.5645217 13.9126746,7.92273065 14.4245528,8.44012976 C14.4854725,8.50159813 14.5150702,8.58784744 14.5049169,8.67429036 C14.4947637,8.76053968 14.4460088,8.83749614 14.3724455,8.88289561 C11.9043379,10.407892 9.03182361,14.1380055 8.21027053,15.2448234 C8.12138149,15.3644689 7.9856533,15.4325197 7.84044233,15.4325197 C7.82559557,15.4325197 7.81055723,15.4317453 7.7954231,15.4302933 C7.63325808,15.4146116 7.49341111,15.3166494 7.4216677,15.1680605 C7.05222264,14.4016903 5.74723964,11.8322157 4.45604977,10.9323575 C4.3873715,10.884538 4.34340591,10.808356 4.33574306,10.7244299 C4.328176,10.6406006 4.35796532,10.5576425 4.41696925,10.4980133 C4.55777408,10.3557164 4.68028386,10.2255197 4.81754462,10.0800284 C4.9958974,9.89097686 5.19790923,9.67646677 5.49436566,9.37706258 C5.54704774,9.32372546 5.6185038,9.29391088 5.69302499,9.29391088 C5.7674504,9.29391088 5.83890646,9.32382226 5.89149275,9.37706258 C6.8808622,10.3771094 7.56055681,11.5406524 7.87569143,12.1405256 L12.3930361,6.54825921 C12.4468676,6.48166041 12.5319252,6.44245617 12.6122893,6.44390818 C12.6972511,6.44429538 12.7774237,6.48369322 12.8302973,6.55077602 Z" id="Combined-Shape"></path>
        </g>
    </g>
</svg>